<mxfile host="app.diagrams.net" modified="2022-09-19T14:15:52.627Z" agent="5.0 (Windows NT 10.0; Win64; x64) AppleWebKit/537.36 (KHTML, like Gecko) Chrome/105.0.0.0 Safari/537.36" etag="7_wn54XamzGh9GiKG4nt" version="20.3.3" type="github">
  <diagram id="ui5f5kDRd81lQ1U5SkLZ" name="Page-1">
    <mxGraphModel dx="1037" dy="587" grid="1" gridSize="10" guides="1" tooltips="1" connect="1" arrows="1" fold="1" page="1" pageScale="1" pageWidth="850" pageHeight="1100" math="0" shadow="0">
      <root>
        <mxCell id="0" />
        <mxCell id="1" parent="0" />
        <mxCell id="sULcf-86bnU6yr5ZqWK2-1" value="STUDENT" style="rounded=0;whiteSpace=wrap;html=1;" parent="1" vertex="1">
          <mxGeometry x="60" y="180" width="120" height="80" as="geometry" />
        </mxCell>
        <mxCell id="sULcf-86bnU6yr5ZqWK2-2" value="BOOKS" style="rounded=0;whiteSpace=wrap;html=1;" parent="1" vertex="1">
          <mxGeometry x="690" y="200" width="120" height="60" as="geometry" />
        </mxCell>
        <mxCell id="sULcf-86bnU6yr5ZqWK2-5" value="" style="endArrow=classic;html=1;rounded=0;entryX=0;entryY=0.5;entryDx=0;entryDy=0;" parent="1" target="sULcf-86bnU6yr5ZqWK2-2" edge="1">
          <mxGeometry width="50" height="50" relative="1" as="geometry">
            <mxPoint x="510" y="230" as="sourcePoint" />
            <mxPoint x="450" y="270" as="targetPoint" />
          </mxGeometry>
        </mxCell>
        <mxCell id="sULcf-86bnU6yr5ZqWK2-6" value="Requested Book" style="text;html=1;strokeColor=none;fillColor=none;align=center;verticalAlign=middle;whiteSpace=wrap;rounded=0;" parent="1" vertex="1">
          <mxGeometry x="530" y="200" width="120" height="30" as="geometry" />
        </mxCell>
        <mxCell id="sULcf-86bnU6yr5ZqWK2-7" value="" style="endArrow=classic;html=1;rounded=0;exitX=1;exitY=0.25;exitDx=0;exitDy=0;" parent="1" source="sULcf-86bnU6yr5ZqWK2-1" edge="1">
          <mxGeometry width="50" height="50" relative="1" as="geometry">
            <mxPoint x="400" y="320" as="sourcePoint" />
            <mxPoint x="370" y="200" as="targetPoint" />
          </mxGeometry>
        </mxCell>
        <mxCell id="sULcf-86bnU6yr5ZqWK2-8" value="Book Request" style="text;html=1;strokeColor=none;fillColor=none;align=center;verticalAlign=middle;whiteSpace=wrap;rounded=0;" parent="1" vertex="1">
          <mxGeometry x="230" y="170" width="100" height="30" as="geometry" />
        </mxCell>
        <mxCell id="sULcf-86bnU6yr5ZqWK2-11" value="Library Management System" style="rounded=1;whiteSpace=wrap;html=1;" parent="1" vertex="1">
          <mxGeometry x="370" y="170" width="140" height="90" as="geometry" />
        </mxCell>
        <mxCell id="sULcf-86bnU6yr5ZqWK2-12" value="" style="endArrow=classic;html=1;rounded=0;entryX=1;entryY=0.75;entryDx=0;entryDy=0;" parent="1" target="sULcf-86bnU6yr5ZqWK2-1" edge="1">
          <mxGeometry width="50" height="50" relative="1" as="geometry">
            <mxPoint x="370" y="240" as="sourcePoint" />
            <mxPoint x="450" y="250" as="targetPoint" />
          </mxGeometry>
        </mxCell>
        <mxCell id="sULcf-86bnU6yr5ZqWK2-13" value="Issued Book" style="text;html=1;strokeColor=none;fillColor=none;align=center;verticalAlign=middle;whiteSpace=wrap;rounded=0;" parent="1" vertex="1">
          <mxGeometry x="210" y="215" width="140" height="30" as="geometry" />
        </mxCell>
        <mxCell id="sULcf-86bnU6yr5ZqWK2-14" value="ADMIN" style="rounded=0;whiteSpace=wrap;html=1;" parent="1" vertex="1">
          <mxGeometry x="380" y="370" width="120" height="60" as="geometry" />
        </mxCell>
        <mxCell id="sULcf-86bnU6yr5ZqWK2-15" value="" style="endArrow=classic;html=1;rounded=0;exitX=0.212;exitY=-0.001;exitDx=0;exitDy=0;exitPerimeter=0;entryX=0.25;entryY=1;entryDx=0;entryDy=0;" parent="1" source="sULcf-86bnU6yr5ZqWK2-14" target="sULcf-86bnU6yr5ZqWK2-11" edge="1">
          <mxGeometry width="50" height="50" relative="1" as="geometry">
            <mxPoint x="400" y="290" as="sourcePoint" />
            <mxPoint x="450" y="240" as="targetPoint" />
          </mxGeometry>
        </mxCell>
        <mxCell id="sULcf-86bnU6yr5ZqWK2-16" value="" style="endArrow=classic;html=1;rounded=0;entryX=0.638;entryY=0.017;entryDx=0;entryDy=0;entryPerimeter=0;exitX=0.622;exitY=0.996;exitDx=0;exitDy=0;exitPerimeter=0;" parent="1" source="sULcf-86bnU6yr5ZqWK2-11" target="sULcf-86bnU6yr5ZqWK2-14" edge="1">
          <mxGeometry width="50" height="50" relative="1" as="geometry">
            <mxPoint x="400" y="290" as="sourcePoint" />
            <mxPoint x="450" y="240" as="targetPoint" />
          </mxGeometry>
        </mxCell>
        <mxCell id="sULcf-86bnU6yr5ZqWK2-17" value="" style="endArrow=none;html=1;rounded=0;entryX=1;entryY=0.25;entryDx=0;entryDy=0;exitX=0;exitY=0.25;exitDx=0;exitDy=0;" parent="1" source="sULcf-86bnU6yr5ZqWK2-11" target="sULcf-86bnU6yr5ZqWK2-11" edge="1">
          <mxGeometry width="50" height="50" relative="1" as="geometry">
            <mxPoint x="370" y="310" as="sourcePoint" />
            <mxPoint x="420" y="260" as="targetPoint" />
          </mxGeometry>
        </mxCell>
        <mxCell id="sULcf-86bnU6yr5ZqWK2-18" value="0.0" style="text;html=1;strokeColor=none;fillColor=none;align=center;verticalAlign=middle;whiteSpace=wrap;rounded=0;" parent="1" vertex="1">
          <mxGeometry x="410" y="170" width="60" height="30" as="geometry" />
        </mxCell>
        <mxCell id="sULcf-86bnU6yr5ZqWK2-19" value="Book details" style="text;html=1;strokeColor=none;fillColor=none;align=center;verticalAlign=middle;whiteSpace=wrap;rounded=0;rotation=90;" parent="1" vertex="1">
          <mxGeometry x="425" y="300" width="90" height="30" as="geometry" />
        </mxCell>
        <mxCell id="sULcf-86bnU6yr5ZqWK2-20" value="Issuing the book" style="text;html=1;strokeColor=none;fillColor=none;align=center;verticalAlign=middle;whiteSpace=wrap;rounded=0;rotation=-90;" parent="1" vertex="1">
          <mxGeometry x="340" y="310" width="100" height="30" as="geometry" />
        </mxCell>
        <mxCell id="sULcf-86bnU6yr5ZqWK2-21" value="Level 0 of Library management System" style="text;html=1;strokeColor=none;fillColor=none;align=center;verticalAlign=middle;whiteSpace=wrap;rounded=0;" parent="1" vertex="1">
          <mxGeometry x="320" y="460" width="240" height="30" as="geometry" />
        </mxCell>
        <mxCell id="m4ADA2V6pezcn5woRUJv-1" value="" style="endArrow=classic;html=1;rounded=0;entryX=1.001;entryY=0.888;entryDx=0;entryDy=0;entryPerimeter=0;exitX=-0.02;exitY=0.844;exitDx=0;exitDy=0;exitPerimeter=0;" edge="1" parent="1" source="sULcf-86bnU6yr5ZqWK2-2" target="sULcf-86bnU6yr5ZqWK2-11">
          <mxGeometry width="50" height="50" relative="1" as="geometry">
            <mxPoint x="400" y="330" as="sourcePoint" />
            <mxPoint x="450" y="280" as="targetPoint" />
          </mxGeometry>
        </mxCell>
        <mxCell id="m4ADA2V6pezcn5woRUJv-2" value="Response" style="text;html=1;strokeColor=none;fillColor=none;align=center;verticalAlign=middle;whiteSpace=wrap;rounded=0;" vertex="1" parent="1">
          <mxGeometry x="560" y="245" width="60" height="30" as="geometry" />
        </mxCell>
      </root>
    </mxGraphModel>
  </diagram>
</mxfile>
